<svg width="448" height="555" viewBox="0 0 448 555" fill="none" xmlns="http://www.w3.org/2000/svg">
<path d="M223.196 83.5434C223.196 63.9133 239.019 48 258.538 48H409.658C429.177 48 445 63.9133 445 83.5434V471.457C445 491.087 429.177 507 409.658 507H258.538C239.019 507 223.196 491.087 223.196 471.457V83.5434Z" fill="#C2C9D2"/>
<path d="M278.563 59.8752C278.563 58.18 277.191 56.8058 275.499 56.8058H262.627C245.701 56.8058 231.98 70.5482 231.98 87.5004V467.5C231.98 484.452 245.701 498.194 262.627 498.194H406.667C423.593 498.194 437.314 484.452 437.314 467.5V87.5004C437.314 70.5482 423.593 56.8058 406.667 56.8058H393.795C392.103 56.8058 390.731 58.18 390.731 59.8752V59.8752C390.731 66.6561 385.242 72.1531 378.472 72.1531H290.822C284.052 72.1531 278.563 66.6561 278.563 59.8752V59.8752Z" fill="#F1F5FB"/>
<path d="M315.431 63.9604C315.431 63.0486 316.274 62.3094 317.314 62.3094H339.902C340.942 62.3094 341.784 63.0486 341.784 63.9604V63.9604C341.784 64.8723 340.942 65.6115 339.902 65.6115H317.314C316.274 65.6115 315.431 64.8723 315.431 63.9604V63.9604Z" fill="#A4AFBB"/>
<path d="M353.863 63.4101C353.863 65.2338 352.88 66.7122 351.667 66.7122C350.454 66.7122 349.471 65.2338 349.471 63.4101C349.471 61.5863 350.454 60.1079 351.667 60.1079C352.88 60.1079 353.863 61.5863 353.863 63.4101Z" fill="#A4AFBB"/>
<path d="M221 118.584C221 117.9 221.655 117.345 222.464 117.345H223.196V137.158H222.464C221.655 137.158 221 136.604 221 135.92V118.584Z" fill="#A4AFBB"/>
<path d="M447.196 163.687C447.196 163.017 446.541 162.475 445.732 162.475H445V216.41H445.732C446.541 216.41 447.196 215.867 447.196 215.198V163.687Z" fill="#A4AFBB"/>
<path d="M221 152.686C221 152.013 221.655 151.468 222.464 151.468H223.196V185.59H222.464C221.655 185.59 221 185.044 221 184.371V152.686Z" fill="#A4AFBB"/>
<path d="M221 195.614C221 194.941 221.655 194.396 222.464 194.396H223.196V228.518H222.464C221.655 228.518 221 227.972 221 227.299V195.614Z" fill="#A4AFBB"/>
<path d="M2.65747 42.9681C2.65747 19.2375 21.8053 0 45.4254 0H228.295C251.915 0 271.063 19.2375 271.063 42.9682V511.914C271.063 535.644 251.915 554.882 228.295 554.882H45.4254C21.8053 554.882 2.65747 535.644 2.65747 511.914V42.9681Z" fill="#C2C9D2"/>
<path d="M69.6577 14.3559C69.6577 12.3065 67.9973 10.6452 65.9491 10.6452H50.3731C29.8912 10.6452 13.2874 27.2584 13.2874 47.7517V507.13C13.2874 527.623 29.8912 544.237 50.3731 544.237H224.676C245.158 544.237 261.762 527.623 261.762 507.13V47.7517C261.762 27.2584 245.158 10.6452 224.676 10.6452H209.1C207.052 10.6452 205.391 12.3065 205.391 14.3559V14.3559C205.391 22.5532 198.75 29.1985 190.557 29.1985H84.492C76.2992 29.1985 69.6577 22.5532 69.6577 14.3559V14.3559Z" fill="#F1F5FB"/>
<path d="M114.272 19.2945C114.272 18.1921 115.291 17.2985 116.549 17.2985H143.884C145.142 17.2985 146.161 18.1921 146.161 19.2945V19.2945C146.161 20.3968 145.142 21.2904 143.884 21.2904H116.549C115.291 21.2904 114.272 20.3968 114.272 19.2945V19.2945Z" fill="#A4AFBB"/>
<path d="M160.778 18.6291C160.778 20.8338 159.588 22.6211 158.12 22.6211C156.652 22.6211 155.463 20.8338 155.463 18.6291C155.463 16.4244 156.652 14.6372 158.12 14.6372C159.588 14.6372 160.778 16.4244 160.778 18.6291Z" fill="#A4AFBB"/>
<path d="M0 85.3281C0 84.5013 0.793196 83.8311 1.77165 83.8311H2.65748V107.783H1.77165C0.793196 107.783 0 107.113 0 106.286V85.3281Z" fill="#A4AFBB"/>
<path d="M273.72 139.853C273.72 139.044 272.927 138.388 271.949 138.388H271.063V203.59H271.949C272.927 203.59 273.72 202.934 273.72 202.125V139.853Z" fill="#A4AFBB"/>
<path d="M0 126.555C0 125.741 0.793196 125.081 1.77165 125.081H2.65748V166.331H1.77165C0.793196 166.331 0 165.672 0 164.858V126.555Z" fill="#A4AFBB"/>
<path d="M0 178.45C0 177.636 0.793196 176.977 1.77165 176.977H2.65748V218.227H1.77165C0.793196 218.227 0 217.567 0 216.754V178.45Z" fill="#A4AFBB"/>
</svg>
