<svg width="449" height="555" viewBox="0 0 449 555" fill="none" xmlns="http://www.w3.org/2000/svg">
<path d="M2.19604 83.5434C2.19604 63.9133 18.0194 48 37.5384 48H188.658C208.177 48 224 63.9133 224 83.5434V471.457C224 491.087 208.177 507 188.658 507H37.5384C18.0194 507 2.19604 491.087 2.19604 471.457V83.5434Z" fill="#C2C9D2"/>
<path d="M57.5634 59.8752C57.5634 58.18 56.1913 56.8058 54.4988 56.8058H41.6271C24.7014 56.8058 10.9803 70.5482 10.9803 87.5004V467.5C10.9803 484.452 24.7014 498.194 41.6271 498.194H185.667C202.593 498.194 216.314 484.452 216.314 467.5V87.5004C216.314 70.5482 202.593 56.8058 185.667 56.8058H172.795C171.103 56.8058 169.731 58.18 169.731 59.8752V59.8752C169.731 66.6561 164.242 72.1531 157.472 72.1531H69.8221C63.0518 72.1531 57.5634 66.6561 57.5634 59.8752V59.8752Z" fill="#F1F5FB"/>
<path d="M94.4314 63.9604C94.4314 63.0485 95.2742 62.3093 96.3137 62.3093H118.902C119.942 62.3093 120.784 63.0485 120.784 63.9604V63.9604C120.784 64.8723 119.942 65.6115 118.902 65.6115H96.3138C95.2742 65.6115 94.4314 64.8723 94.4314 63.9604V63.9604Z" fill="#A4AFBB"/>
<path d="M132.863 63.4101C132.863 65.2338 131.88 66.7122 130.667 66.7122C129.454 66.7122 128.471 65.2338 128.471 63.4101C128.471 61.5863 129.454 60.1079 130.667 60.1079C131.88 60.1079 132.863 61.5863 132.863 63.4101Z" fill="#A4AFBB"/>
<path d="M0 118.584C0 117.9 0.655479 117.345 1.46405 117.345H2.19608V137.158H1.46405C0.655479 137.158 0 136.604 0 135.92V118.584Z" fill="#A4AFBB"/>
<path d="M226.196 163.687C226.196 163.017 225.541 162.475 224.732 162.475H224V216.41H224.732C225.541 216.41 226.196 215.867 226.196 215.198V163.687Z" fill="#A4AFBB"/>
<path d="M0 152.686C0 152.013 0.655479 151.468 1.46405 151.468H2.19608V185.59H1.46405C0.655479 185.59 0 185.044 0 184.371V152.686Z" fill="#A4AFBB"/>
<path d="M0 195.614C0 194.941 0.655479 194.396 1.46405 194.396H2.19608V228.518H1.46405C0.655479 228.518 0 227.972 0 227.299V195.614Z" fill="#A4AFBB"/>
<path d="M177.657 42.9681C177.657 19.2375 196.805 0 220.425 0H403.295C426.915 0 446.063 19.2375 446.063 42.9682V511.914C446.063 535.644 426.915 554.882 403.295 554.882H220.425C196.805 554.882 177.657 535.644 177.657 511.914V42.9681Z" fill="#C2C9D2"/>
<path d="M244.658 14.3559C244.658 12.3065 242.997 10.6452 240.949 10.6452H225.373C204.891 10.6452 188.287 27.2584 188.287 47.7517V507.13C188.287 527.623 204.891 544.237 225.373 544.237H399.676C420.158 544.237 436.762 527.623 436.762 507.13V47.7517C436.762 27.2583 420.158 10.6452 399.676 10.6452H384.1C382.052 10.6452 380.391 12.3065 380.391 14.3559V14.3559C380.391 22.5532 373.75 29.1985 365.557 29.1985H259.492C251.299 29.1985 244.658 22.5532 244.658 14.3559V14.3559Z" fill="#F1F5FB"/>
<path d="M289.272 19.2944C289.272 18.1921 290.291 17.2985 291.549 17.2985H318.884C320.142 17.2985 321.161 18.1921 321.161 19.2944V19.2944C321.161 20.3968 320.142 21.2904 318.884 21.2904H291.549C290.291 21.2904 289.272 20.3968 289.272 19.2944V19.2944Z" fill="#A4AFBB"/>
<path d="M335.778 18.6291C335.778 20.8338 334.588 22.6211 333.12 22.6211C331.652 22.6211 330.463 20.8338 330.463 18.6291C330.463 16.4244 331.652 14.6371 333.12 14.6371C334.588 14.6371 335.778 16.4244 335.778 18.6291Z" fill="#A4AFBB"/>
<path d="M175 85.328C175 84.5013 175.793 83.8311 176.772 83.8311H177.657V107.783H176.772C175.793 107.783 175 107.113 175 106.286V85.328Z" fill="#A4AFBB"/>
<path d="M448.72 139.853C448.72 139.044 447.927 138.388 446.949 138.388H446.063V203.59H446.949C447.927 203.59 448.72 202.934 448.72 202.125V139.853Z" fill="#A4AFBB"/>
<path d="M175 126.555C175 125.741 175.793 125.081 176.772 125.081H177.657V166.331H176.772C175.793 166.331 175 165.672 175 164.858V126.555Z" fill="#A4AFBB"/>
<path d="M175 178.45C175 177.636 175.793 176.977 176.772 176.977H177.657V218.227H176.772C175.793 218.227 175 217.567 175 216.754V178.45Z" fill="#A4AFBB"/>
</svg>
