<svg width="542" height="309" viewBox="0 0 542 309" fill="none" xmlns="http://www.w3.org/2000/svg">
<path d="M1.95923 115.75C1.95923 98.2018 16.0761 83.9764 33.4901 83.9764H168.312C185.726 83.9764 199.843 98.2018 199.843 115.75V462.518C199.843 480.066 185.726 494.291 168.312 494.291H33.4901C16.0761 494.291 1.95923 480.066 1.95923 462.518V115.75Z" fill="#C2C9D2"/>
<path d="M51.3555 94.592C51.3555 93.0766 50.1314 91.8481 48.6213 91.8481H37.1378C22.0375 91.8481 9.7962 104.133 9.7962 119.287V458.981C9.7962 474.135 22.0375 486.42 37.1378 486.42H165.644C180.744 486.42 192.985 474.135 192.985 458.981V119.287C192.985 104.133 180.744 91.8481 165.644 91.8481H154.16C152.65 91.8481 151.426 93.0766 151.426 94.592V94.592C151.426 100.654 146.529 105.568 140.489 105.568H62.2921C56.252 105.568 51.3555 100.654 51.3555 94.592V94.592Z" fill="#F1F5FB"/>
<path d="M84.2473 98.2439C84.2473 97.4288 84.9992 96.768 85.9267 96.768H106.079C107.006 96.768 107.758 97.4288 107.758 98.2439V98.2439C107.758 99.0591 107.006 99.7199 106.079 99.7199H85.9267C84.9992 99.7199 84.2473 99.0591 84.2473 98.2439V98.2439Z" fill="#A4AFBB"/>
<path d="M118.534 97.752C118.534 99.3822 117.657 100.704 116.575 100.704C115.493 100.704 114.616 99.3822 114.616 97.752C114.616 96.1217 115.493 94.8 116.575 94.8C117.657 94.8 118.534 96.1217 118.534 97.752Z" fill="#A4AFBB"/>
<path d="M0 147.073C0 146.462 0.584788 145.966 1.30616 145.966H1.95924V163.678H1.30616C0.584788 163.678 0 163.182 0 162.571V147.073Z" fill="#A4AFBB"/>
<path d="M201.802 187.393C201.802 186.794 201.217 186.309 200.496 186.309H199.843V234.524H200.496C201.217 234.524 201.802 234.038 201.802 233.44V187.393Z" fill="#A4AFBB"/>
<path d="M0 177.559C0 176.957 0.584788 176.469 1.30616 176.469H1.95924V206.972H1.30616C0.584788 206.972 0 206.485 0 205.883V177.559Z" fill="#A4AFBB"/>
<path d="M0 215.934C0 215.332 0.584788 214.844 1.30616 214.844H1.95924V245.347H1.30616C0.584788 245.347 0 244.86 0 244.258V215.934Z" fill="#A4AFBB"/>
<path d="M342.117 115.75C342.117 98.2018 356.234 83.9764 373.648 83.9764H508.469C525.883 83.9764 540 98.2018 540 115.75V462.518C540 480.066 525.883 494.291 508.469 494.291H373.648C356.234 494.291 342.117 480.066 342.117 462.518V115.75Z" fill="#C2C9D2"/>
<path d="M391.513 94.592C391.513 93.0766 390.289 91.8481 388.779 91.8481H377.295C362.195 91.8481 349.954 104.133 349.954 119.287V458.981C349.954 474.135 362.195 486.42 377.295 486.42H505.801C520.901 486.42 533.143 474.135 533.143 458.981V119.287C533.143 104.133 520.901 91.8481 505.801 91.8481H494.318C492.807 91.8481 491.583 93.0766 491.583 94.592V94.592C491.583 100.654 486.687 105.568 480.647 105.568H402.45C396.409 105.568 391.513 100.654 391.513 94.592V94.592Z" fill="#F1F5FB"/>
<path d="M424.405 98.2439C424.405 97.4288 425.157 96.768 426.084 96.768H446.236C447.164 96.768 447.916 97.4288 447.916 98.2439V98.2439C447.916 99.0591 447.164 99.7199 446.236 99.7199H426.084C425.157 99.7199 424.405 99.0591 424.405 98.2439V98.2439Z" fill="#A4AFBB"/>
<path d="M458.692 97.752C458.692 99.3822 457.814 100.704 456.732 100.704C455.65 100.704 454.773 99.3822 454.773 97.752C454.773 96.1217 455.65 94.8 456.732 94.8C457.814 94.8 458.692 96.1217 458.692 97.752Z" fill="#A4AFBB"/>
<path d="M340.157 147.073C340.157 146.462 340.742 145.966 341.464 145.966H342.117V163.678H341.464C340.742 163.678 340.157 163.182 340.157 162.571V147.073Z" fill="#A4AFBB"/>
<path d="M541.959 187.393C541.959 186.794 541.374 186.309 540.653 186.309H540V234.524H540.653C541.374 234.524 541.959 234.038 541.959 233.44V187.393Z" fill="#A4AFBB"/>
<path d="M340.157 177.559C340.157 176.957 340.742 176.469 341.464 176.469H342.117V206.972H341.464C340.742 206.972 340.157 206.485 340.157 205.883V177.559Z" fill="#A4AFBB"/>
<path d="M340.157 215.934C340.157 215.332 340.742 214.844 341.464 214.844H342.117V245.347H341.464C340.742 245.347 340.157 244.86 340.157 244.258V215.934Z" fill="#A4AFBB"/>
<path d="M136.594 42.9681C136.594 19.2375 155.742 0 179.362 0H362.232C385.852 0 405 19.2375 405 42.9682V511.914C405 535.644 385.852 554.882 362.232 554.882H179.362C155.742 554.882 136.594 535.644 136.594 511.914V42.9681Z" fill="#C2C9D2"/>
<path d="M203.595 14.3559C203.595 12.3065 201.934 10.6452 199.886 10.6452H184.31C163.828 10.6452 147.224 27.2584 147.224 47.7517V507.13C147.224 527.623 163.828 544.237 184.31 544.237H358.613C379.095 544.237 395.699 527.623 395.699 507.13V47.7517C395.699 27.2584 379.095 10.6452 358.613 10.6452H343.037C340.989 10.6452 339.329 12.3065 339.329 14.3559V14.3559C339.329 22.5532 332.687 29.1985 324.494 29.1985H218.429C210.236 29.1985 203.595 22.5532 203.595 14.3559V14.3559Z" fill="#F1F5FB"/>
<path d="M248.209 19.2945C248.209 18.1921 249.228 17.2985 250.487 17.2985H277.821C279.079 17.2985 280.098 18.1921 280.098 19.2945V19.2945C280.098 20.3968 279.079 21.2904 277.821 21.2904H250.487C249.228 21.2904 248.209 20.3968 248.209 19.2945V19.2945Z" fill="#A4AFBB"/>
<path d="M294.715 18.6291C294.715 20.8338 293.525 22.6211 292.057 22.6211C290.589 22.6211 289.4 20.8338 289.4 18.6291C289.4 16.4244 290.589 14.6372 292.057 14.6372C293.525 14.6372 294.715 16.4244 294.715 18.6291Z" fill="#A4AFBB"/>
<path d="M133.937 85.3281C133.937 84.5013 134.73 83.8311 135.709 83.8311H136.594V107.783H135.709C134.73 107.783 133.937 107.113 133.937 106.286V85.3281Z" fill="#A4AFBB"/>
<path d="M407.657 139.853C407.657 139.044 406.864 138.388 405.886 138.388H405V203.59H405.886C406.864 203.59 407.657 202.934 407.657 202.125V139.853Z" fill="#A4AFBB"/>
<path d="M133.937 126.555C133.937 125.741 134.73 125.081 135.709 125.081H136.594V166.331H135.709C134.73 166.331 133.937 165.672 133.937 164.858V126.555Z" fill="#A4AFBB"/>
<path d="M133.937 178.45C133.937 177.636 134.73 176.977 135.709 176.977H136.594V218.227H135.709C134.73 218.227 133.937 217.567 133.937 216.754V178.45Z" fill="#A4AFBB"/>
</svg>
