<svg width="870" height="495" viewBox="0 0 870 495" fill="none" xmlns="http://www.w3.org/2000/svg">
<path d="M870 470.733C870 469.776 869.197 469 868.206 469H1.79381C0.803118 469 0 469.776 0 470.733V482.568C0 483.273 0.428189 483.905 1.10959 484.156C20.9532 491.474 62.2384 494.433 80.7216 495H789.278C807.762 494.433 849.047 491.474 868.89 484.156C869.572 483.905 870 483.273 870 482.568V470.733Z" fill="#A4AFBB"/>
<path d="M81 17.9693C81 8.04515 89.0249 0 98.924 0H771.076C780.975 0 789 8.04515 789 17.9693V469H81V17.9693Z" fill="#C2C9D2"/>
<path d="M93 14.4959C93 12.0129 95.0124 10 97.4948 10H773.505C775.988 10 778 12.0129 778 14.4959V442.504C778 444.987 775.988 447 773.505 447H97.4948C95.0124 447 93 444.987 93 442.504V14.4959Z" fill="#F1F5FB"/>
<path d="M374 469H496C496 473.971 491.582 478 486.132 478H383.868C378.418 478 374 473.971 374 469Z" fill="#E1E4E8"/>
</svg>
