<svg width="150" height="50" viewBox="0 0 150 50" fill="none" xmlns="http://www.w3.org/2000/svg">
<path d="M0 5C0 2.23858 2.23858 0 5 0H145C147.761 0 150 2.23858 150 5V45C150 47.7614 147.761 50 145 50H5C2.23858 50 0 47.7614 0 45V5Z" fill="#00d1b2"/>
<path fill-rule="evenodd" clip-rule="evenodd" d="M53.862 32.8876H47.9343L46.5108 37.1746H44L49.6147 21.3139H52.2233L57.8379 37.1746H55.2843L53.862 32.8876ZM48.5482 30.9094H53.2469L50.9306 23.952H50.8658L48.5482 30.9094ZM69.9637 31.3933C69.9637 34.9868 68.0779 37.2955 65.232 37.2955C63.761 37.374 62.3754 36.5882 61.6646 35.2724H61.6108V41H59.2834V25.6109H61.5362V27.5342H61.579C62.3214 26.2266 63.7085 25.4412 65.1892 25.4899C68.0668 25.4899 69.9637 27.8099 69.9637 31.3933ZM67.5715 31.3933C67.5715 29.0522 66.3853 27.513 64.5753 27.513C62.7971 27.513 61.601 29.0846 61.601 31.3933C61.601 33.7233 62.7971 35.2837 64.5753 35.2837C66.3853 35.2837 67.5715 33.7557 67.5715 31.3933ZM82.4429 31.3933C82.4429 34.9868 80.557 37.2955 77.7112 37.2955C76.2402 37.374 74.8546 36.5882 74.1438 35.2724H74.0899V41H71.7626V25.6109H74.0153V27.5342H74.0581C74.8005 26.2266 76.1876 25.4412 77.6684 25.4899C80.546 25.4899 82.4429 27.8099 82.4429 31.3933ZM80.0507 31.3933C80.0507 29.0522 78.8644 27.513 77.0545 27.513C75.2763 27.513 74.0802 29.0846 74.0802 31.3933C74.0802 33.7233 75.2763 35.2837 77.0545 35.2837C78.8645 35.2837 80.0507 33.7557 80.0507 31.3933ZM90.6906 32.7554C90.863 34.3282 92.3612 35.3609 94.4084 35.3609C96.3701 35.3609 97.7814 34.3282 97.7814 32.91C97.7814 31.6789 96.9302 30.9418 94.9147 30.4366L92.8993 29.9414C90.0436 29.238 88.7179 27.8759 88.7179 25.6657C88.7179 22.9291 91.0563 21.0494 94.3766 21.0494C97.6627 21.0494 99.9155 22.9291 99.9913 25.6657H97.6419C97.5013 24.0829 96.2184 23.1275 94.3436 23.1275C92.4688 23.1275 91.1859 24.0941 91.1859 25.5011C91.1859 26.6224 92.0053 27.2822 94.0097 27.7873L95.7231 28.2164C98.9138 28.986 100.24 30.2932 100.24 32.6131C100.24 35.5804 97.922 37.4389 94.2359 37.4389C90.7872 37.4389 88.4586 35.6241 88.3082 32.7553L90.6906 32.7554ZM105.262 22.8743V25.6109H107.418V27.4905H105.262V33.8655C105.262 34.8558 105.694 35.3173 106.642 35.3173C106.898 35.3128 107.153 35.2944 107.407 35.2624V37.1309C106.981 37.2121 106.548 37.2488 106.115 37.2406C103.819 37.2406 102.924 36.3613 102.924 34.1186V27.4905H101.275V25.6109H102.924V22.8743H105.262ZM108.667 31.3933C108.667 27.755 110.768 25.4687 114.044 25.4687C117.332 25.4687 119.423 27.7549 119.423 31.3933C119.423 35.0417 117.343 37.318 114.044 37.318C110.747 37.318 108.667 35.0417 108.667 31.3933ZM117.052 31.3933C117.052 28.8975 115.93 27.4245 114.044 27.4245C112.159 27.4245 111.038 28.9087 111.038 31.3933C111.038 33.8992 112.159 35.361 114.044 35.361C115.93 35.361 117.052 33.8992 117.052 31.3933ZM121.342 25.6109H123.562V27.5791H123.615C123.925 26.3121 125.063 25.44 126.343 25.4899C126.611 25.4889 126.878 25.5186 127.14 25.5784V27.7986C126.801 27.6931 126.448 27.6446 126.094 27.6552C125.41 27.6269 124.748 27.905 124.282 28.4165C123.815 28.928 123.592 29.6217 123.669 30.3157V37.1745H121.342L121.342 25.6109ZM137.87 33.7782C137.557 35.8774 135.553 37.318 132.988 37.318C129.69 37.318 127.643 35.0641 127.643 31.4482C127.643 27.8211 129.701 25.4687 132.89 25.4687C136.027 25.4687 138 27.6664 138 31.1726V31.9858H129.992V32.1292C129.917 32.9901 130.209 33.8423 130.792 34.469C131.376 35.0956 132.195 35.4364 133.042 35.4046C134.171 35.5126 135.236 34.8511 135.66 33.7782L137.87 33.7782ZM130.003 30.3269L135.671 30.3269C135.714 29.5533 135.438 28.7969 134.91 28.2397C134.382 27.6826 133.65 27.3754 132.89 27.392C132.125 27.3874 131.389 27.6947 130.847 28.2459C130.305 28.797 130.001 29.5462 130.003 30.3269ZM48.2565 9.37551C49.2446 9.30319 50.2123 9.68657 50.8934 10.4201C51.5745 11.1537 51.8972 12.1601 51.7726 13.1623C51.7726 15.597 50.4824 16.9965 48.2565 16.9965H45.5575V9.37551H48.2565ZM46.718 15.9188H48.1269C48.833 15.9618 49.5205 15.6781 49.9986 15.1464C50.4766 14.6146 50.6943 13.8915 50.5912 13.1778C50.6868 12.4671 50.466 11.7499 49.9891 11.2226C49.5122 10.6952 48.8292 10.4127 48.1269 10.4525H46.718V15.9188ZM53.0836 14.1183C52.9869 13.0874 53.4716 12.0898 54.3344 11.5437C55.1971 10.9977 56.2888 10.9977 57.1516 11.5437C58.0143 12.0898 58.499 13.0874 58.4023 14.1183C58.5008 15.1503 58.0166 16.1499 57.1531 16.6971C56.2896 17.2443 55.1964 17.2443 54.3328 16.6971C53.4693 16.1499 52.9851 15.1503 53.0836 14.1183ZM57.2576 14.1183C57.2576 12.8716 56.7085 12.1426 55.7448 12.1426C54.7774 12.1426 54.2332 12.8716 54.2332 14.1183C54.2332 15.375 54.7775 16.0984 55.7448 16.0984C56.7085 16.0984 57.2576 15.37 57.2576 14.1183ZM65.4723 16.9964H64.3178L63.1523 12.7606H63.0643L61.9037 16.9964H60.7602L59.2058 11.2451H60.3346L61.3448 15.6337H61.428L62.5873 11.2451H63.655L64.8144 15.6337H64.9024L65.9077 11.2451H67.0206L65.4723 16.9964ZM68.328 11.2451H69.3993V12.1588H69.4824C69.7716 11.4861 70.4474 11.0746 71.1652 11.1341C71.721 11.0915 72.2657 11.309 72.6454 11.7251C73.0251 12.1412 73.1987 12.7109 73.1171 13.2732V16.9964H72.0042V13.5583C72.0042 12.634 71.6104 12.1744 70.7873 12.1744C70.4104 12.1565 70.0445 12.3074 69.7857 12.5875C69.5269 12.8676 69.4009 13.2491 69.4408 13.6318V16.9964H68.3279L68.328 11.2451ZM74.8904 9H76.0033V16.9964H74.8904V9ZM77.5504 14.1183C77.4538 13.0874 77.9385 12.0897 78.8013 11.5436C79.6642 10.9976 80.7559 10.9976 81.6187 11.5436C82.4816 12.0897 82.9663 13.0874 82.8697 14.1183C82.9681 15.1503 82.4838 16.1499 81.6202 16.6971C80.7566 17.2443 79.6634 17.2443 78.7999 16.6971C77.9363 16.1499 77.452 15.1503 77.5504 14.1183ZM81.7244 14.1183C81.7244 12.8716 81.1752 12.1426 80.2116 12.1426C79.2442 12.1426 78.7 12.8716 78.7 14.1183C78.7 15.375 79.2442 16.0984 80.2116 16.0984C81.1753 16.0984 81.7244 15.37 81.7244 14.1183ZM84.0413 15.37C84.0413 14.3347 84.7971 13.7379 86.1387 13.6531L87.6662 13.5633V13.0668C87.6662 12.4594 87.2724 12.1164 86.5117 12.1164C85.8904 12.1164 85.46 12.349 85.3364 12.7556H84.259C84.3727 11.7678 85.2838 11.1342 86.5631 11.1342C87.9768 11.1342 88.7742 11.852 88.7742 13.0668V16.9964H87.7029V16.1882H87.6148C87.251 16.7784 86.6039 17.1234 85.921 17.0912C85.4423 17.142 84.9649 16.9839 84.6067 16.6559C84.2486 16.328 84.0432 15.8608 84.0413 15.37ZM87.6662 14.8785V14.3977L86.2891 14.4875C85.5125 14.5405 85.1603 14.8099 85.1603 15.3169C85.1603 15.8346 85.6006 16.1358 86.206 16.1358C86.5644 16.1728 86.9222 16.0599 87.1974 15.8229C87.4727 15.5859 87.6418 15.2451 87.6662 14.8785ZM90.2369 14.1183C90.2369 12.301 91.1529 11.1497 92.5776 11.1497C93.2971 11.1159 93.9709 11.5091 94.3069 12.1587H94.3901V9H95.503V16.9964H94.4365V16.0878H94.3485C93.9871 16.732 93.3049 17.1185 92.5776 17.0912C91.1431 17.0913 90.2369 15.94 90.2369 14.1183ZM91.3865 14.1183C91.3865 15.3382 91.9503 16.0722 92.8932 16.0722C93.8312 16.0722 94.4109 15.3276 94.4109 14.1233C94.4109 12.9246 93.8251 12.1694 92.8932 12.1694C91.9564 12.1694 91.3865 12.9084 91.3865 14.1183ZM100.107 14.1183C100.011 13.0874 100.495 12.0898 101.358 11.5437C102.221 10.9977 103.313 10.9977 104.175 11.5437C105.038 12.0898 105.523 13.0874 105.426 14.1183C105.525 15.1503 105.04 16.1499 104.177 16.6971C103.313 17.2443 102.22 17.2443 101.357 16.6971C100.493 16.1499 100.009 15.1503 100.107 14.1183ZM104.281 14.1183C104.281 12.8716 103.732 12.1426 102.769 12.1426C101.801 12.1426 101.257 12.8716 101.257 14.1183C101.257 15.375 101.801 16.0984 102.769 16.0984C103.732 16.0984 104.281 15.37 104.281 14.1183ZM106.919 11.2451H107.991V12.1588H108.074C108.363 11.4861 109.039 11.0746 109.757 11.1341C110.313 11.0915 110.857 11.309 111.237 11.7251C111.617 12.1412 111.79 12.7109 111.709 13.2732V16.9964H110.596V13.5583C110.596 12.634 110.202 12.1744 109.379 12.1744C109.002 12.1565 108.636 12.3074 108.377 12.5875C108.118 12.8676 107.992 13.2491 108.032 13.6318V16.9964H106.919V11.2451ZM117.997 9.81325V11.2713H119.219V12.2274H117.997V15.1847C117.997 15.7872 118.24 16.051 118.794 16.051C118.936 16.0505 119.078 16.0418 119.219 16.0248V16.9702C119.019 17.0067 118.816 17.0261 118.613 17.0282C117.376 17.0282 116.883 16.5842 116.883 15.4753V12.2273H115.988V11.2713H116.883V9.81325H117.997ZM120.739 9H121.842V12.1694H121.93C122.233 11.4908 122.921 11.0788 123.65 11.1391C124.202 11.1084 124.74 11.3307 125.115 11.7453C125.491 12.16 125.665 12.7238 125.592 13.2832V16.9964H124.478V13.5632C124.478 12.6446 124.058 12.1793 123.272 12.1793C122.885 12.147 122.503 12.2905 122.229 12.5716C121.956 12.8528 121.818 13.2428 121.852 13.6374V16.9964H120.739L120.739 9ZM132.081 15.4435C131.769 16.5284 130.739 17.2293 129.637 17.1074C128.885 17.1277 128.163 16.8098 127.661 16.2381C127.159 15.6665 126.93 14.8988 127.032 14.1389C126.932 13.3768 127.161 12.6079 127.66 12.0314C128.159 11.455 128.879 11.1276 129.632 11.1341C131.201 11.1341 132.148 12.2274 132.148 14.0335V14.4295H128.166V14.4931C128.131 14.9199 128.274 15.342 128.56 15.6557C128.846 15.9694 129.248 16.1455 129.668 16.1407C130.212 16.2074 130.742 15.932 131.009 15.4435L132.081 15.4435ZM128.166 13.5901H131.014C131.043 13.1997 130.908 12.8154 130.644 12.5316C130.379 12.2479 130.01 12.0912 129.626 12.1002C129.237 12.0952 128.863 12.2506 128.588 12.5311C128.313 12.8116 128.161 13.1935 128.166 13.5901ZM31.3136 25.1667C31.3165 27.8461 32.9255 30.2643 35.4 31.308C34.9241 32.8499 34.2067 34.3069 33.2745 35.6253C32.0225 37.493 30.7098 39.3178 28.6264 39.3515C26.6019 39.3981 25.9216 38.1633 23.5996 38.1633C21.2559 38.1633 20.5307 39.3178 18.5891 39.3981C16.6049 39.4714 15.0885 37.4046 13.791 35.5544C11.1977 31.7759 9.17834 24.9059 11.8856 20.2314C13.1569 17.9531 15.5339 16.5074 18.1469 16.4232C20.1328 16.3825 21.9771 17.7608 23.1981 17.7608C24.396 17.7608 26.6748 16.112 29.0254 16.358C31.2597 16.4278 33.3302 17.5441 34.6124 19.3702C32.5892 20.6107 31.3442 22.7983 31.3136 25.1667ZM27.4898 13.873C26.3877 15.2401 24.7177 16.0275 22.9589 16.0095C22.847 14.2954 23.423 12.6072 24.5599 11.3169C25.7112 10.009 27.3144 9.18179 29.0499 9C29.1855 10.7649 28.6258 12.513 27.4898 13.873Z" fill="#F1F5FB"/>
</svg>
