<svg width="166" height="50" viewBox="0 0 166 50" fill="none" xmlns="http://www.w3.org/2000/svg">
<path d="M0 5C0 2.23858 2.23858 0 5 0H161C163.761 0 166 2.23858 166 5V45C166 47.7614 163.761 50 161 50H5C2.23858 50 0 47.7614 0 45V5Z" fill="#00d1b2"/>
<path fill-rule="evenodd" clip-rule="evenodd" d="M58.0155 12.2409C58.0576 13.1693 57.7257 14.0747 57.0973 14.7458C56.3951 15.4921 55.4157 15.8974 54.4038 15.8606C52.8519 15.8481 51.4584 14.8851 50.8677 13.4168C50.277 11.9486 50.6043 10.2611 51.6982 9.13471C52.4089 8.39239 53.3884 7.98432 54.4038 8.00747C54.9214 8.00571 55.4339 8.11227 55.9097 8.32059C56.3527 8.5034 56.7471 8.79097 57.0606 9.15976L56.4117 9.82358C55.9163 9.22073 55.1726 8.89134 54.4038 8.93431C53.6311 8.93043 52.8902 9.2488 52.352 9.81599C51.8137 10.3832 51.5246 11.1502 51.5512 11.9403C51.5348 13.1341 52.2221 14.2208 53.2933 14.6948C54.3645 15.1688 55.6093 14.9369 56.4484 14.1071C56.8251 13.6894 57.0424 13.147 57.0606 12.579H54.4038V11.6773H57.9665C57.9992 11.8633 58.0156 12.0519 58.0155 12.2409ZM63.6228 9.10966H60.3172V11.4894H63.3289V12.3912H60.3172V14.7709H63.6228V15.6977H59.3377V8.18282H63.6228V9.10966ZM67.6384 15.6977H66.6957V9.10966H64.6389V8.18282H69.7442V9.10966H67.6384V15.6977ZM73.3436 15.6977V8.18282H74.2863V15.6977H73.3436ZM78.4734 15.6977H77.5307V9.10966H75.4739V8.18282H80.518V9.10966H78.4734V15.6977ZM90.0797 14.7208C88.5897 16.2366 86.1828 16.2366 84.6928 14.7208C83.2485 13.1567 83.2485 10.7113 84.6928 9.14723C85.4054 8.41296 86.3749 8 87.3863 8C88.3976 8 89.3672 8.41296 90.0797 9.14723C91.5302 10.7088 91.5302 13.1592 90.0797 14.7208ZM85.3907 14.0945C86.4942 15.2187 88.2784 15.2187 89.3819 14.0945C90.4656 12.8723 90.4656 11.0082 89.3819 9.786C88.2784 8.66182 86.4942 8.66182 85.3907 9.786C84.3069 11.0082 84.3069 12.8723 85.3907 14.0945ZM92.4916 15.6977V8.18282H93.6424L97.2173 14.0319V8.18282H98.16V15.6977H97.1806L93.4465 9.57308V15.6977H92.4916ZM83.3828 26.657C84.7731 26.6297 86.1146 27.1809 87.1001 28.1844C88.0856 29.1879 88.6307 30.5577 88.6106 31.98C88.6105 34.9166 86.2859 37.2984 83.4154 37.303C80.545 37.3076 78.2131 34.9332 78.2041 31.9967C78.1951 29.0601 80.5124 26.6708 83.3828 26.657ZM83.3828 35.2114C84.1949 35.1922 84.9649 34.8382 85.5182 34.2297C86.0714 33.6213 86.361 32.81 86.3211 31.98C86.318 30.6532 85.5223 29.4632 84.3148 28.9792C83.1072 28.4952 81.7331 28.8155 80.8497 29.787C79.9664 30.7585 79.7533 32.1836 80.3123 33.3809C80.8714 34.5781 82.089 35.304 83.3828 35.2114ZM71.9847 26.657H71.9724C73.3627 26.6297 74.7042 27.1809 75.6897 28.1844C76.6752 29.1879 77.2203 30.5577 77.2002 31.98C77.2002 34.9182 74.8731 37.3008 72.001 37.3031C69.1289 37.3054 66.7982 34.9266 66.7937 31.9884C66.7892 29.0502 69.1126 26.6639 71.9847 26.657ZM71.9847 35.2114H71.9724C72.7845 35.1922 73.5545 34.8382 74.1078 34.2297C74.661 33.6213 74.9506 32.81 74.9107 31.98C74.9072 30.6521 74.11 29.4616 72.9009 28.9787C71.6918 28.4957 70.3169 28.8187 69.4349 29.7928C68.5528 30.767 68.343 32.194 68.906 33.3904C69.469 34.5869 70.6902 35.3092 71.9847 35.2114ZM58.4073 28.2977L65.8387 28.2351C65.9241 28.7017 65.9651 29.1757 65.9612 29.6504C66.0188 31.599 65.3339 33.4942 64.0513 34.9359C62.5855 36.5061 60.5275 37.351 58.4073 37.253C55.4432 37.371 52.6536 35.8206 51.1372 33.2124C49.6209 30.6042 49.6209 27.3564 51.1372 24.7483C52.6536 22.1401 55.4432 20.5897 58.4073 20.7077C60.4895 20.6892 62.4902 21.5341 63.9533 23.0498L62.3985 24.6405C61.3257 23.5809 59.886 22.9999 58.395 23.0248C55.1495 23.0248 52.5184 25.7164 52.5184 29.0367C52.5184 32.357 55.1495 35.0486 58.395 35.0486C59.9212 35.1108 61.4019 34.5103 62.4719 33.3953C63.1818 32.616 63.6133 31.6141 63.6962 30.5522H58.4073V28.2977ZM113.88 30.0512L114.137 30.6148L107.171 33.5582C107.607 34.5754 108.608 35.2162 109.693 35.1739C110.741 35.1766 111.713 34.6152 112.252 33.6959L114.027 34.9484C113.06 36.4282 111.432 37.3127 109.693 37.3031C108.31 37.3238 106.979 36.7684 106.004 35.7645C105.03 34.7606 104.496 33.3945 104.526 31.98C104.442 30.5979 104.92 29.2417 105.848 28.2333C106.776 27.2249 108.07 26.6543 109.424 26.657C111.453 26.7334 113.226 28.0838 113.88 30.0512ZM106.779 31.8297L111.431 29.8508C111.065 29.1127 110.304 28.6692 109.497 28.7236C108.731 28.7589 108.011 29.1081 107.5 29.6925C106.989 30.2768 106.729 31.0471 106.779 31.8297ZM101.123 36.99V21.3339H103.412V36.99H101.123ZM97.3765 27.8468V26.9701H99.4823V36.4514C99.4823 40.3842 97.2663 41.9999 94.5851 41.9999C92.5641 42.0123 90.738 40.7685 89.9695 38.8562L91.9651 38.0045C92.3823 39.1205 93.4175 39.8678 94.5851 39.8957C96.2991 39.8957 97.3642 38.8061 97.3642 36.7645V36.0005H97.2908C96.6028 36.8125 95.5986 37.2711 94.5484 37.253C91.7694 37.1151 89.5855 34.77 89.5855 31.9237C89.5855 29.0774 91.7694 26.7322 94.5484 26.5943C95.5952 26.5929 96.5929 27.0486 97.2908 27.8468H97.3765ZM94.7565 35.2114H94.7443C95.5399 35.1801 96.2884 34.8171 96.8157 34.2067C97.343 33.5963 97.6031 32.7917 97.5356 31.98C97.5961 31.1721 97.3351 30.3734 96.8119 29.765C96.2887 29.1566 95.5475 28.7901 94.7565 28.7486C93.1195 28.8962 91.864 30.2988 91.864 31.98C91.864 33.6612 93.1195 35.0638 94.7565 35.2114ZM124.617 21.3339C126.395 21.2032 128.096 22.0998 129.025 23.6573C129.953 25.2148 129.953 27.1723 129.025 28.7298C128.096 30.2873 126.395 31.1839 124.617 31.0532H121.422V36.99H119.132V21.3339H124.617ZM124.605 28.8488L124.654 28.8864C126.104 28.8864 127.28 27.6836 127.28 26.1998C127.28 24.7161 126.104 23.5132 124.654 23.5132H121.409V28.8488H124.605ZM138.721 26.5943L138.782 26.6319C141.39 26.6319 143.422 28.2226 143.422 30.9655V36.99H141.218V35.7375H141.145C140.508 36.7504 139.381 37.3267 138.207 37.2405C137.254 37.3125 136.313 36.9872 135.598 36.3384C134.883 35.6897 134.455 34.7727 134.411 33.7961C134.411 31.5291 136.627 30.2767 138.819 30.2767C139.651 30.2731 140.471 30.4796 141.206 30.8778V30.715C141.148 30.1133 140.856 29.5608 140.395 29.1816C139.935 28.8024 139.345 28.6284 138.758 28.6985C137.902 28.6269 137.086 29.0789 136.676 29.8508L134.644 28.9866C135.416 27.4299 137.017 26.4902 138.721 26.5943ZM138.439 35.1739L138.5 35.2114C139.88 35.177 141.023 34.1085 141.182 32.7065C140.546 32.3437 139.828 32.1621 139.1 32.1804C137.95 32.1804 136.652 32.5937 136.652 33.8462C136.652 34.7856 137.692 35.1739 138.439 35.1739ZM151.453 26.9701H154L147.732 41.7369H145.344L147.67 36.4639L143.594 26.9701H146.042L148.76 33.7586H148.833L151.453 26.9701ZM130.873 36.99V21.3339H133.163V36.99H130.873ZM40.22 23.9583C40.5295 24.1373 40.7144 24.4576 40.7144 24.8151C40.7144 25.1726 40.5294 25.493 40.2199 25.6715L34.6024 28.9138L30.659 25.1019L34.9738 20.931L40.22 23.9583ZM34.0833 20.4166L29.948 24.4144L15.6575 10.6L28.31 17.0837L34.0833 20.4166ZM15.8676 39.4L29.948 25.7893L33.712 29.4282L28.3318 32.5341L15.8676 39.4ZM14.8134 11.1592L29.2369 25.1016L14.8 39.0574L14.8134 11.1592Z" fill="#F1F5FB"/>
</svg>
