<svg width="422" height="122" viewBox="0 0 422 122" fill="none" xmlns="http://www.w3.org/2000/svg">
<path d="M138 97.8068H152.761V75.1705H165.17C181.227 75.1705 190.568 65.5909 190.568 51.6477C190.568 37.7727 181.398 27.9886 165.545 27.9886H138V97.8068ZM152.761 63.3409V40.0568H162.716C171.239 40.0568 175.364 44.6932 175.364 51.6477C175.364 58.5682 171.239 63.3409 162.784 63.3409H152.761Z" fill="white"/>
<path d="M214.406 27.9886H199.884V97.8068H214.406V27.9886Z" fill="white"/>
<path d="M240.972 98.7955C248.71 98.7955 253.722 95.4205 256.278 90.5455H256.688V97.8068H270.46V62.4886C270.46 50.0114 259.892 44.7614 248.233 44.7614C235.688 44.7614 227.438 50.7614 225.426 60.3068L238.858 61.3977C239.847 57.9205 242.949 55.3636 248.165 55.3636C253.108 55.3636 255.938 57.8523 255.938 62.1477V62.3523C255.938 65.7273 252.358 66.1705 243.256 67.0568C232.892 68.0114 223.585 71.4886 223.585 83.1818C223.585 93.5455 230.983 98.7955 240.972 98.7955ZM245.131 88.7727C240.665 88.7727 237.46 86.6932 237.46 82.7045C237.46 78.6136 240.835 76.6023 245.949 75.8864C249.119 75.4432 254.301 74.6932 256.04 73.5341V79.0909C256.04 84.5795 251.506 88.7727 245.131 88.7727Z" fill="white"/>
<path d="M281.727 97.8068H296.25V45.4432H281.727V97.8068ZM289.023 38.6932C293.352 38.6932 296.898 35.3864 296.898 31.3295C296.898 27.3068 293.352 24 289.023 24C284.727 24 281.182 27.3068 281.182 31.3295C281.182 35.3864 284.727 38.6932 289.023 38.6932Z" fill="white"/>
<path d="M322.406 67.5341C322.44 60.7841 326.463 56.8295 332.327 56.8295C338.156 56.8295 341.668 60.6477 341.634 67.0568V97.8068H356.156V64.4659C356.156 52.2614 348.997 44.7614 338.088 44.7614C330.315 44.7614 324.69 48.5795 322.338 54.6818H321.724V45.4432H307.884V97.8068H322.406V67.5341Z" fill="white"/>
<path d="M367.875 97.8068H397.705C413.386 97.8068 421.739 89.625 421.739 78.5114C421.739 68.1818 414.341 61.9432 406.398 61.5682V60.8864C413.659 59.25 419.011 54.1023 419.011 45.8864C419.011 35.4205 411.239 27.9886 395.83 27.9886H367.875V97.8068ZM382.636 85.7386V67.1932H395.011C402.102 67.1932 406.5 71.2841 406.5 77.0455C406.5 82.2955 402.92 85.7386 394.67 85.7386H382.636ZM382.636 57.2045V39.9205H393.852C400.398 39.9205 404.114 43.2955 404.114 48.3409C404.114 53.8636 399.614 57.2045 393.58 57.2045H382.636Z" fill="white"/>
<path d="M24 98V74H58C71.2548 74 82 63.2548 82 50V48C82 34.7452 71.2548 24 58 24H48C34.7452 24 24 34.7452 24 48V74H0V48C0 21.4903 21.4903 0 48 0H58C84.5097 0 106 21.4903 106 48V50C106 76.5097 84.5097 98 58 98H24Z" fill="white"/>
<path d="M24 98V122C10.7452 122 0 111.255 0 98H24Z" fill="white"/>
<path d="M37 61V52.5C37 43.9396 43.9396 37 52.5 37H56C62.6274 37 68 42.3726 68 49C68 55.6274 62.6274 61 56 61H37Z" fill="white"/>
</svg>
