<svg width="127" height="32" viewBox="0 0 127 32" fill="none" xmlns="http://www.w3.org/2000/svg">
<g clip-path="url(#clip0)">
<path fill-rule="evenodd" clip-rule="evenodd" d="M40.458 25.1963L42.0363 21.5289C43.741 22.8037 46.0122 23.4663 48.2531 23.4663C49.9073 23.4663 50.9544 22.829 50.9544 21.8628C50.9291 19.1616 41.0448 21.276 40.9689 14.5027C40.9436 11.0629 43.999 8.41227 48.329 8.41227C50.9038 8.41227 53.4735 9.04964 55.3097 10.5014L53.8327 14.2447C52.1532 13.1723 50.0641 12.4085 48.0761 12.4085C46.7255 12.4085 45.8352 13.0458 45.8352 13.8603C45.8605 16.5109 55.8206 15.0591 55.9218 21.5289C55.9218 25.0446 52.9424 27.5182 48.6629 27.5182C45.5266 27.5131 42.6483 26.7746 40.458 25.1963ZM101.064 20.2036C100.275 21.5795 98.7976 22.5204 97.0878 22.5204C94.5636 22.5204 92.5301 20.4818 92.5301 17.9627C92.5301 15.4436 94.5687 13.405 97.0878 13.405C98.7925 13.405 100.275 14.3459 101.064 15.7218L105.419 13.3038C103.79 10.4003 100.654 8.41227 97.0878 8.41227C91.8118 8.41227 87.5323 12.6918 87.5323 17.9678C87.5323 23.2438 91.8118 27.5232 97.0878 27.5232C100.679 27.5232 103.79 25.5605 105.419 22.6317L101.064 20.2036ZM58.1121 0.485617H63.5652V27.159H58.1121V0.485617ZM107.559 0.485617V27.159H113.012V19.1565L119.482 27.159H126.462L118.232 17.6541L125.85 8.7866H119.173L113.007 16.1467V0.485617H107.559Z" fill="black"/>
<path d="M79.7675 20.2542C78.9784 21.5542 77.3495 22.5204 75.5133 22.5204C72.9891 22.5204 70.9556 20.4818 70.9556 17.9627C70.9556 15.4436 72.9942 13.405 75.5133 13.405C77.3495 13.405 78.9784 14.4218 79.7675 15.7471V20.2542ZM79.7675 8.79165V10.9567C78.8772 9.45432 76.6616 8.40721 74.3397 8.40721C69.5493 8.40721 65.7808 12.6361 65.7808 17.9374C65.7808 23.2387 69.5493 27.5182 74.3397 27.5182C76.6565 27.5182 78.8721 26.4761 79.7675 24.9687V27.1337H85.2205V8.79165H79.7675Z" fill="black"/>
<path fill-rule="evenodd" clip-rule="evenodd" d="M6.75318 20.2289C6.75318 22.0904 5.25081 23.5928 3.38929 23.5928C1.52776 23.5928 0.0253906 22.0854 0.0253906 20.2289C0.0253906 18.3724 1.52776 16.865 3.38929 16.865H6.75318V20.2289ZM8.4326 20.2289C8.4326 18.3674 9.93497 16.865 11.7965 16.865C13.658 16.865 15.1604 18.3674 15.1604 20.2289V28.6361C15.1604 30.4976 13.658 32 11.7965 32C9.93497 32 8.4326 30.4976 8.4326 28.6361V20.2289Z" fill="#516178"/>
<path fill-rule="evenodd" clip-rule="evenodd" d="M11.7964 6.72779C9.93487 6.72779 8.4325 5.22542 8.4325 3.3639C8.4325 1.50237 9.93487 0 11.7964 0C13.6579 0 15.1603 1.50237 15.1603 3.3639V6.72779H11.7964ZM11.7964 8.4325C13.6579 8.4325 15.1603 9.93487 15.1603 11.7964C15.1603 13.6579 13.6579 15.1603 11.7964 15.1603H3.3639C1.50237 15.1603 0 13.6529 0 11.7964C0 9.93993 1.50237 8.4325 3.3639 8.4325H11.7964Z" fill="#91A1B8"/>
<path fill-rule="evenodd" clip-rule="evenodd" d="M25.2724 11.7964C25.2724 9.93487 26.7748 8.4325 28.6363 8.4325C30.4979 8.4325 32.0002 9.93487 32.0002 11.7964C32.0002 13.6579 30.4979 15.1603 28.6363 15.1603H25.2724V11.7964ZM23.593 11.7964C23.593 13.6579 22.0907 15.1603 20.2291 15.1603C18.3676 15.1603 16.8652 13.6579 16.8652 11.7964V3.36389C16.8652 1.50237 18.3676 -9.53674e-07 20.2291 -9.53674e-07C22.0907 -9.53674e-07 23.593 1.50237 23.593 3.36389V11.7964Z" fill="#7989A0"/>
<path fill-rule="evenodd" clip-rule="evenodd" d="M20.2291 25.2722C22.0907 25.2722 23.593 26.7746 23.593 28.6361C23.593 30.4976 22.0907 32 20.2291 32C18.3676 32 16.8652 30.4976 16.8652 28.6361V25.2722H20.2291ZM20.2291 23.5928C18.3676 23.5928 16.8652 22.0904 16.8652 20.2289C16.8652 18.3674 18.3676 16.865 20.2291 16.865H28.6616C30.5232 16.865 32.0255 18.3674 32.0255 20.2289C32.0255 22.0904 30.5232 23.5928 28.6616 23.5928H20.2291Z" fill="#A7B7CE"/>
</g>
<defs>
<clipPath id="clip0">
<rect width="126.462" height="32" fill="white"/>
</clipPath>
</defs>
</svg>
