<svg width="107" height="32" viewBox="0 0 107 32" fill="none" xmlns="http://www.w3.org/2000/svg">
<g clip-path="url(#clip0)">
<path d="M15.9999 1.90735e-05C7.16359 1.90735e-05 0 7.16341 0 15.9997C0 24.837 7.16359 32 15.9999 32C24.8366 32 31.9998 24.837 31.9998 15.9997C31.9998 7.16398 24.837 0.000782727 15.9997 0.000782727L15.9999 1.90735e-05ZM23.3374 23.0762C23.05 23.5475 22.4359 23.6952 21.9661 23.4081C18.2089 21.1117 13.4798 20.593 7.91043 21.8653C7.37374 21.9883 6.83878 21.6518 6.71651 21.1153C6.59365 20.5787 6.92857 20.0437 7.4666 19.9214C13.5614 18.528 18.7894 19.1278 23.0066 21.7048C23.4766 21.9933 23.6256 22.6066 23.3372 23.0766L23.3374 23.0762ZM25.2957 18.7202C24.9338 19.3074 24.1662 19.4915 23.5798 19.131C19.28 16.4879 12.7234 15.7223 7.63646 17.2665C6.97672 17.4657 6.27993 17.0939 6.0797 16.4354C5.881 15.7756 6.253 15.0802 6.91158 14.8795C12.7223 13.1165 19.9458 13.9705 24.8847 17.0055C25.4713 17.3666 25.6566 18.1346 25.2955 18.7204L25.2957 18.7202ZM25.4638 14.1837C20.3064 11.1208 11.7992 10.8392 6.87583 12.3335C6.08524 12.5733 5.24916 12.1269 5.00957 11.3363C4.76998 10.5454 5.21591 9.70985 6.00709 9.46949C11.6588 7.75379 21.0542 8.08527 26.9912 11.6097C27.7023 12.0318 27.9356 12.9502 27.5141 13.6604C27.0938 14.3715 26.1728 14.6059 25.464 14.1837H25.4638ZM43.5304 14.7706C40.7679 14.1119 40.2761 13.6495 40.2761 12.678C40.2761 11.7601 41.1403 11.1424 42.4253 11.1424C43.6711 11.1424 44.9062 11.6115 46.2013 12.5771C46.2404 12.6063 46.2895 12.618 46.3379 12.6103C46.3862 12.6031 46.429 12.5765 46.4573 12.5366L47.8062 10.6352C47.8616 10.5568 47.8465 10.4489 47.7718 10.3891C46.2305 9.15234 44.4949 8.55107 42.4663 8.55107C39.4834 8.55107 37.3999 10.3411 37.3999 12.9023C37.3999 15.6488 39.1972 16.6212 42.3031 17.3719C44.9466 17.9808 45.3927 18.491 45.3927 19.4029C45.3927 20.4134 44.4905 21.0416 43.0387 21.0416C41.4261 21.0416 40.1109 20.4984 38.6395 19.2242C38.603 19.1927 38.553 19.1784 38.5067 19.1811C38.458 19.1851 38.4135 19.2076 38.3825 19.2449L36.8701 21.0449C36.8067 21.1195 36.8147 21.2311 36.8881 21.2957C38.6 22.824 40.7054 23.6312 42.9775 23.6312C46.1917 23.6312 48.2687 21.875 48.2687 19.1568C48.2745 16.8622 46.9008 15.5916 43.5362 14.7731L43.5304 14.7706ZM55.5404 12.0461C54.1472 12.0461 53.0045 12.5949 52.0622 13.7192V12.4537C52.0622 12.3537 51.9812 12.2723 51.8815 12.2723H49.4078C49.3079 12.2723 49.2271 12.3537 49.2271 12.4537V26.516C49.2271 26.6159 49.3079 26.6973 49.4078 26.6973H51.8815C51.9812 26.6973 52.0622 26.616 52.0622 26.516V22.0771C53.0047 23.1348 54.1476 23.6517 55.5404 23.6517C58.1291 23.6517 60.7497 21.6589 60.7497 17.8496C60.7535 14.0393 58.1322 12.0459 55.5433 12.0459L55.5404 12.0461ZM57.8733 17.8496C57.8733 19.7894 56.6784 21.1431 54.9674 21.1431C53.276 21.1431 52.0001 19.7279 52.0001 17.8496C52.0001 15.9715 53.276 14.5561 54.9674 14.5561C56.6507 14.5559 57.8735 15.9407 57.8735 17.8494L57.8733 17.8496ZM67.4664 12.0461C64.1326 12.0461 61.5208 14.6132 61.5208 17.891C61.5208 21.1331 64.1146 23.6732 67.4255 23.6732C70.7711 23.6732 73.391 21.1148 73.391 17.8496C73.391 14.5956 70.7887 12.0465 67.4662 12.0465L67.4664 12.0461ZM67.4664 21.1623C65.6932 21.1623 64.3563 19.7376 64.3563 17.8486C64.3563 15.9516 65.6469 14.575 67.4255 14.575C69.2102 14.575 70.556 15.9997 70.556 17.8901C70.556 19.7867 69.2568 21.1623 67.4666 21.1623H67.4664ZM80.51 12.2724H77.788V9.48937C77.788 9.38964 77.7074 9.30825 77.6074 9.30825H75.1342C75.0341 9.30825 74.9529 9.38964 74.9529 9.48937V12.2724H73.7635C73.664 12.2724 73.5833 12.3537 73.5833 12.4537V14.5796C73.5833 14.6793 73.664 14.7609 73.7635 14.7609H74.9529V20.2617C74.9529 22.4847 76.0593 23.6117 78.2414 23.6117C79.1287 23.6117 79.8648 23.4285 80.5586 23.0351C80.6149 23.0036 80.6499 22.9428 80.6499 22.8783V20.8538C80.6499 20.7913 80.6174 20.7323 80.5639 20.6996C80.51 20.6658 80.443 20.6641 80.3877 20.6914C79.9112 20.9312 79.4506 21.0418 78.9357 21.0418C78.142 21.0418 77.788 20.6815 77.788 19.8739V14.7619H80.51C80.6099 14.7619 80.6904 14.6805 80.6904 14.5806V12.4548C80.6942 12.3549 80.614 12.2735 80.5127 12.2735L80.51 12.2724ZM89.9942 12.2832V11.9414C89.9942 10.9359 90.3798 10.4875 91.2445 10.4875C91.7602 10.4875 92.1744 10.5899 92.6383 10.7446C92.6954 10.7626 92.755 10.7536 92.8015 10.7194C92.8492 10.6852 92.8762 10.6304 92.8762 10.5723V8.48783C92.8762 8.40815 92.825 8.33766 92.7482 8.31415C92.2581 8.16837 91.631 8.01877 90.6922 8.01877C88.4075 8.01877 87.1998 9.30537 87.1998 11.7381V12.2616H86.0114C85.9117 12.2616 85.8299 12.343 85.8299 12.4428V14.5796C85.8299 14.6793 85.9117 14.7609 86.0114 14.7609H87.1998V23.2456C87.1998 23.3456 87.2804 23.427 87.3802 23.427H89.8538C89.9537 23.427 90.0351 23.3456 90.0351 23.2456V14.7615H92.3447L95.8825 23.2441C95.4809 24.1354 95.086 24.3127 94.5468 24.3127C94.111 24.3127 93.6521 24.1826 93.1828 23.9258C93.1387 23.9016 93.0863 23.8976 93.0388 23.9123C92.9916 23.9289 92.9518 23.964 92.9318 24.0099L92.0934 25.8492C92.0535 25.9362 92.0877 26.0382 92.1714 26.0833C93.0466 26.5573 93.8367 26.7596 94.8132 26.7596C96.6397 26.7596 97.6492 25.9088 98.5392 23.6199L102.831 12.5308C102.852 12.4751 102.846 12.412 102.811 12.3625C102.777 12.3134 102.723 12.2838 102.663 12.2838H100.088C100.01 12.2838 99.9413 12.3329 99.9161 12.4053L97.2782 19.9403L94.3888 12.4004C94.3625 12.3302 94.2948 12.2838 94.2199 12.2838H89.9937L89.9942 12.2832ZM84.4955 12.2724H82.0219C81.922 12.2724 81.8406 12.3537 81.8406 12.4537V23.2457C81.8406 23.3456 81.922 23.427 82.0219 23.427H84.4955C84.5953 23.427 84.6768 23.3456 84.6768 23.2457V12.4544C84.6769 12.4306 84.6722 12.407 84.6631 12.3849C84.654 12.3629 84.6406 12.3429 84.6238 12.326C84.6069 12.3092 84.5869 12.2958 84.5648 12.2867C84.5428 12.2777 84.5192 12.273 84.4953 12.2731L84.4955 12.2724ZM83.2727 7.35849C82.2928 7.35849 81.4976 8.15176 81.4976 9.13171C81.4976 10.1122 82.293 10.9065 83.2728 10.9065C84.2523 10.9065 85.0467 10.1122 85.0467 9.13171C85.0467 8.15195 84.2519 7.35849 83.2737 7.35849H83.2727ZM104.943 15.7422C103.964 15.7422 103.202 14.956 103.202 14.0012C103.202 13.0465 103.974 12.2513 104.952 12.2513C105.931 12.2513 106.693 13.0373 106.693 13.9913C106.693 14.946 105.921 15.7422 104.943 15.7422H104.943ZM104.952 12.4244C104.061 12.4244 103.386 13.1333 103.386 14.0012C103.386 14.8688 104.056 15.5681 104.943 15.5681C105.835 15.5681 106.51 14.8599 106.51 13.9913C106.51 13.1237 105.84 12.4244 104.953 12.4244H104.952ZM105.338 14.1703L105.831 14.8597H105.415L104.972 14.2273H104.591V14.8597H104.243V13.0324H105.058C105.483 13.0324 105.762 13.2496 105.762 13.6153C105.764 13.9149 105.59 14.0979 105.34 14.1703H105.338V14.1703ZM105.044 13.3459H104.591V13.9239H105.044C105.27 13.9239 105.405 13.8132 105.405 13.6346C105.405 13.4466 105.27 13.3459 105.044 13.3459H105.044V13.3459Z" fill="#7989A0"/>
</g>
<defs>
<clipPath id="clip0">
<rect width="106.693" height="32" fill="white"/>
</clipPath>
</defs>
</svg>
