<svg width="227" height="459" viewBox="0 0 227 459" fill="none" xmlns="http://www.w3.org/2000/svg">
<path d="M2.19604 35.5434C2.19604 15.9133 18.0194 0 37.5384 0H188.658C208.177 0 224 15.9133 224 35.5434V423.457C224 443.087 208.177 459 188.658 459H37.5384C18.0194 459 2.19604 443.087 2.19604 423.457V35.5434Z" fill="#C2C9D2"/>
<path d="M57.5634 11.8752C57.5634 10.18 56.1913 8.80576 54.4988 8.80576H41.6271C24.7014 8.80576 10.9803 22.5482 10.9803 39.5004V419.5C10.9803 436.452 24.7014 450.194 41.6271 450.194H185.667C202.593 450.194 216.314 436.452 216.314 419.5V39.5004C216.314 22.5482 202.593 8.80576 185.667 8.80576H172.795C171.103 8.80576 169.731 10.18 169.731 11.8752C169.731 18.6561 164.242 24.1531 157.472 24.1531H69.8221C63.0518 24.1531 57.5634 18.6561 57.5634 11.8752Z" fill="#F1F5FB"/>
<path d="M94.4314 15.9604C94.4314 15.0486 95.2742 14.3094 96.3137 14.3094H118.902C119.942 14.3094 120.784 15.0486 120.784 15.9604C120.784 16.8723 119.942 17.6115 118.902 17.6115H96.3138C95.2742 17.6115 94.4314 16.8723 94.4314 15.9604Z" fill="#A4AFBB"/>
<path d="M132.863 15.4101C132.863 17.2338 131.88 18.7122 130.667 18.7122C129.454 18.7122 128.471 17.2338 128.471 15.4101C128.471 13.5863 129.454 12.1079 130.667 12.1079C131.88 12.1079 132.863 13.5863 132.863 15.4101Z" fill="#A4AFBB"/>
<path d="M0 70.5836C0 69.8997 0.655479 69.3453 1.46405 69.3453H2.19608V89.1583H1.46405C0.655479 89.1583 0 88.6039 0 87.92V70.5836Z" fill="#A4AFBB"/>
<path d="M226.196 115.687C226.196 115.017 225.541 114.475 224.732 114.475H224V168.41H224.732C225.541 168.41 226.196 167.867 226.196 167.198V115.687Z" fill="#A4AFBB"/>
<path d="M0 104.686C0 104.013 0.655479 103.468 1.46405 103.468H2.19608V137.59H1.46405C0.655479 137.59 0 137.044 0 136.371V104.686Z" fill="#A4AFBB"/>
<path d="M0 147.614C0 146.941 0.655479 146.396 1.46405 146.396H2.19608V180.518H1.46405C0.655479 180.518 0 179.972 0 179.299V147.614Z" fill="#A4AFBB"/>
</svg>
